<svg xmlns="http://www.w3.org/2000/svg" width="55.302" height="41.477" viewBox="0 0 55.302 41.477">
  <g id="Open_Folder" data-name="Open Folder" transform="translate(0 -3)">
    <path id="Path_221" data-name="Path 221" d="M50.561,8H11.388a4.609,4.609,0,0,0-4.47,3.5L.167,34.292a1.152,1.152,0,0,0,0,.76,4.609,4.609,0,0,0,4.309,2.9H43.648a4.609,4.609,0,0,0,4.424-3.341l6.913-20.508a1.128,1.128,0,0,0,0-.207,4.47,4.47,0,0,0,.184-1.29A4.609,4.609,0,0,0,50.561,8Z" transform="translate(0.133 6.521)" fill="#808d93"/>
    <path id="Path_222" data-name="Path 222" d="M1.152,26.918A1.152,1.152,0,0,0,2.3,26.043l2.512-8.618a6.913,6.913,0,0,1,6.705-5.208H47.03a1.152,1.152,0,0,0,1.083-1.544,4.609,4.609,0,0,0-4.332-3.065H22.374L18.088,3.346A1.152,1.152,0,0,0,17.282,3H4.609A4.609,4.609,0,0,0,0,7.609V25.766A1.152,1.152,0,0,0,.991,26.9Z" transform="translate(0 0)" fill="#808d93"/>
  </g>
</svg>
