<svg id="Group_1088" data-name="Group 1088" xmlns="http://www.w3.org/2000/svg" width="20.893" height="20.893" viewBox="0 0 20.893 20.893">
  <circle id="Ellipse_3" data-name="Ellipse 3" cx="2.786" cy="2.786" r="2.786" transform="translate(7.661 7.661)" fill="#ff5242"/>
  <path id="Path_217" data-name="Path 217" d="M10.094,4,8.5,5.741H5.741A1.741,1.741,0,0,0,4,7.482V17.929A1.741,1.741,0,0,0,5.741,19.67H19.67a1.741,1.741,0,0,0,1.741-1.741V7.482A1.741,1.741,0,0,0,19.67,5.741H16.91L15.317,4Zm2.612,13.058a4.353,4.353,0,1,1,4.353-4.353A4.354,4.354,0,0,1,12.705,17.058Z" transform="translate(-2.259 -2.259)" fill="#ff5242"/>
  <path id="Path_218" data-name="Path 218" d="M0,0H20.893V20.893H0Z" fill="none"/>
</svg>